PathFileType	4	(X/Y/Z)	C:\Users\Basilio\Documents\Thesis Gigler\squatting_fais\c3dfiles\044\SJ_pre4\markers_experimental.trc
DataRate	CameraRate	NumFrames	NumMarkers	Units	OrigDataRate	OrigDataStartFrame	OrigNumFrames
200.000000	200.000000	4	63	mm	200.000000	890	1425
Frame#	Time	FHD			LBHD			RBHD			C7			T10			CLAV			LSHO			LUUPA			LMUPA			LDUPA			LLEP			LMEP			LRAD			LUL			LRFIN			RSHO			RUPA1			RMUPA			RDUPA			RLEP			RMEP			RRAD			RUL			RUFIN			LASI			RASI			USACR			LSACR			LTHI1			LTHI2			LTHI3			LTHI4			LLFC			LMFC			LTIB1			LTIB2			LTIB3			LTIB4			LLMAL			LMMAL			LHEE			LMT1			LMT2			LMT5			RTHI			RTHI2			RTHI3			RTHI4			RLFC			RMFC			RTIB1			RTIB2			RTIB3			RTIB4			RLMAL			RMMAL			RHEE			RMT1			RMT2			RMT5			RSACR			*61			*62			
		X1	Y1	Z1	X2	Y2	Z2	X3	Y3	Z3	X4	Y4	Z4	X5	Y5	Z5	X6	Y6	Z6	X7	Y7	Z7	X8	Y8	Z8	X9	Y9	Z9	X10	Y10	Z10	X11	Y11	Z11	X12	Y12	Z12	X13	Y13	Z13	X14	Y14	Z14	X15	Y15	Z15	X16	Y16	Z16	X17	Y17	Z17	X18	Y18	Z18	X19	Y19	Z19	X20	Y20	Z20	X21	Y21	Z21	X22	Y22	Z22	X23	Y23	Z23	X24	Y24	Z24	X25	Y25	Z25	X26	Y26	Z26	X27	Y27	Z27	X28	Y28	Z28	X29	Y29	Z29	X30	Y30	Z30	X31	Y31	Z31	X32	Y32	Z32	X33	Y33	Z33	X34	Y34	Z34	X35	Y35	Z35	X36	Y36	Z36	X37	Y37	Z37	X38	Y38	Z38	X39	Y39	Z39	X40	Y40	Z40	X41	Y41	Z41	X42	Y42	Z42	X43	Y43	Z43	X44	Y44	Z44	X45	Y45	Z45	X46	Y46	Z46	X47	Y47	Z47	X48	Y48	Z48	X49	Y49	Z49	X50	Y50	Z50	X51	Y51	Z51	X52	Y52	Z52	X53	Y53	Z53	X54	Y54	Z54	X55	Y55	Z55	X56	Y56	Z56	X57	Y57	Z57	X58	Y58	Z58	X59	Y59	Z59	X60	Y60	Z60	X61	Y61	Z61	X62	Y62	Z62	X63	Y63	Z63	

891	4.45	-299.2889404296876	2122.704345703125	-881.9134521484377	-406.3335571289064	2032.284545898438	-956.3240966796877	-434.536834716797	1999.164428710938	-793.8720703125002	-414.3506164550782	1845.143310546875	-884.7905883789065	-358.4048156738282	1547.233276367188	-893.4248046875002	-260.9514465332032	1855.7421875	-882.3923339843752	-303.8672485351563	1881.967041015625	-1059.0029296875	-340.3752441406251	1713.739013671875	-1223.96875	-307.4741210937501	1676.095825195313	-1215.36572265625	-344.4923400878907	1653.810668945313	-1259.070922851563	-340.9418640136719	1594.03125	-1275.800170898438	-414.5066223144532	1584.839111328125	-1230.942993164063	-282.5683593750001	1371.105834960938	-1106.438354492188	-260.5782775878907	1344.705810546875	-1165.659912109375	-218.297592163086	1364.683471679688	-1077.36962890625	-320.1792297363282	1839.827758789063	-695.1896972656251	-338.6471557617188	1652.094604492188	-562.2288208007814	-299.7009277343751	1621.582641601563	-572.7210693359376	-332.0873718261719	1587.327392578125	-535.6499633789064	-316.2023010253907	1525.858154296875	-528.0018920898439	-390.1058654785157	1507.698608398438	-571.8820800781251	-254.2449951171876	1303.421264648438	-692.2897949218751	-214.2010192871094	1287.980224609375	-634.5822753906251	-188.4727478027344	1333.539794921875	-718.9141235351564	-170.3751525878907	1375.257690429688	-1016.3603515625	-143.8218688964844	1353.011840820313	-802.6459960937502	-320.7426452636719	1427.460571289063	-883.6137695312502	-328.4280395507813	1393.620849609375	-908.6064453125002	-307.7183227539063	1147.879516601563	-1093.965942382813	-286.0709228515626	1066.523803710938	-1104.803833007813	-238.2566833496094	1061.594482421875	-1103.919677734375	-321.6890869140626	1017.255493164063	-1091.317749023438	-323.9117431640626	855.9534912109377	-1094.173706054688	-304.3834838867188	836.118103027344	-974.1049804687502	-322.1510009765626	670.9880981445314	-1044.119140625	-359.3754272460938	637.9668579101564	-1117.411865234375	-327.1344604492188	627.8031005859376	-1084.484741210938	-353.3822631835938	550.1242675781251	-1063.268432617188	-427.1831970214845	441.3618164062501	-1118.40673828125	-398.6297607421876	439.5769653320314	-1036.595336914063	-492.3940734863282	429.2513732910157	-1069.807495117188	-301.9885253906251	328.5786132812501	-1049.770263671875	-301.7254943847657	327.7712097167969	-1096.414306640625	-348.0621643066407	318.9082031250001	-1137.341796875	-289.4497070312501	1097.595947265625	-708.7662963867189	-258.3476257324219	1036.954956054688	-709.0036010742189	-227.4851379394532	1033.5849609375	-716.5299072265626	-298.3096008300782	963.1921386718752	-723.8689575195314	-326.3698425292969	850.8012695312502	-732.6358642578126	-322.8924865722657	840.7332763671877	-856.8843994140627	-310.7187194824219	715.6003417968751	-750.2253417968751	-400.0803222656251	662.9893798828126	-711.5895385742189	-358.9388732910157	647.7296752929689	-722.3027954101564	-356.4620666503907	594.1897583007814	-744.6311645507814	-452.9452209472657	456.2583312988282	-732.4569091796876	-423.8458251953126	452.778533935547	-812.318054199219	-513.0996093750001	458.2639465332032	-785.2542724609377	-351.6095581054688	320.5251464843751	-792.2537841796877	-352.0342712402344	313.2536315917969	-756.2644042968751	-400.4334106445314	315.3027343750001	-710.1018066406251	-319.5667724609376	1398.495483398438	-851.653015136719	nan	nan	nan	nan	nan	nan	
892	4.455	-298.2767028808594	2116.90478515625	-881.180358886719	-405.9391174316407	2026.717529296875	-955.740905761719	-434.5086669921876	1994.253051757813	-793.434509277344	-414.8334045410157	1840.047485351563	-884.5573730468752	-359.2109375000001	1542.008544921875	-893.414245605469	-261.4835510253907	1850.22265625	-882.0852050781252	-304.5203247070313	1876.578857421875	-1058.6826171875	-341.1237182617188	1708.411010742188	-1223.839477539063	-308.2717285156251	1670.682373046875	-1215.283081054688	-345.7231445312501	1648.3486328125	-1258.773681640625	-341.8949890136719	1588.936279296875	-1275.67041015625	-415.1341552734376	1579.470947265625	-1230.84619140625	-283.6768188476563	1365.728271484375	-1106.560913085938	-261.4114990234376	1339.510131835938	-1165.902465820313	-219.1175994873047	1359.099609375	-1077.347412109375	-320.3721008300782	1834.205200195313	-694.8321533203126	-339.1020507812501	1646.51318359375	-561.9758300781251	-299.9821166992188	1616.10009765625	-572.7183837890626	-332.2864685058594	1581.759643554688	-535.6126098632814	-316.6780700683594	1520.520629882813	-527.7775878906251	-390.5191650390626	1502.078369140625	-571.5737304687501	-254.7453002929688	1297.335327148438	-692.3070068359376	-215.0693054199219	1282.696166992188	-634.9782104492189	-189.3734893798828	1328.05419921875	-719.2436523437501	-171.6594543457032	1369.851928710938	-1016.30126953125	-145.0957336425782	1347.422729492188	-802.7876586914065	-322.0346069335938	1422.262573242188	-883.831237792969	-329.5744323730469	1388.30908203125	-908.7515258789065	-307.9096069335938	1142.231079101563	-1094.299072265625	-287.0021667480469	1060.51806640625	-1105.01123046875	-239.8384857177735	1055.017700195313	-1103.442138671875	-321.7959289550782	1011.565002441406	-1091.869140625	-323.7379760742188	850.443542480469	-1094.810668945313	-304.4876708984376	830.4749755859377	-974.7291259765627	-321.5855407714844	665.3377685546876	-1045.073608398438	-359.1323547363282	632.2539062500001	-1118.172973632813	-326.3114624023438	622.4607543945314	-1085.537963867188	-352.2326660156251	544.4533081054689	-1064.397827148438	-426.0958862304689	435.3290405273439	-1119.47998046875	-397.6113891601564	433.7367248535157	-1037.648315429688	-491.3140258789064	423.373260498047	-1071.135864257813	-300.4300231933594	323.7005004882813	-1050.978149414063	-299.6746520996094	323.7802429199219	-1098.222412109375	-346.5776672363282	313.3377685546876	-1138.321655273438	-290.0793762207032	1092.192993164063	-708.9412841796876	-258.7761535644532	1031.318481445313	-709.0529174804689	-227.6865539550782	1028.274780273438	-716.6708374023439	-298.5328674316407	957.5410766601565	-723.6119384765626	-326.0393676757813	845.0772094726565	-732.2219848632814	-322.4685668945313	834.634216308594	-856.4107666015627	-310.2636108398438	709.9282226562501	-749.4335937500001	-399.6686096191407	657.2095336914064	-710.8887329101564	-358.2994384765626	641.8322753906251	-721.4397583007814	-355.7625122070313	587.9654541015626	-743.3137207031251	-451.9484863281251	449.9984741210939	-731.4912719726564	-422.2987670898439	446.7953491210939	-811.6293945312502	-511.9270324707032	451.0722656250001	-784.4598388671877	-349.6042480468751	315.3544921875001	-790.436462402344	-349.6477661132813	308.2671813964844	-754.5239868164064	-398.1748352050782	310.0065917968751	-708.4988403320314	-321.1293945312501	1392.921020507813	-851.732849121094	nan	nan	nan	nan	nan	nan	
893	4.46	-297.3672180175782	2110.747314453125	-880.4631958007815	-405.4127197265626	2022.207153320313	-955.0408935546877	-434.5032043457032	1989.081787109375	-792.8862304687502	-415.2974243164064	1834.454223632813	-884.128356933594	-360.4704589843751	1536.297119140625	-893.306823730469	-261.4998779296876	1844.746215820313	-881.847595214844	-305.0507812500001	1871.070434570313	-1058.607299804688	-341.9866027832032	1702.948486328125	-1223.687744140625	-309.2380981445313	1665.009399414063	-1215.022216796875	-346.5569763183594	1642.883666992188	-1258.708862304688	-342.9739074707032	1583.358154296875	-1275.531372070313	-416.2268676757814	1573.808227539063	-1230.592529296875	-284.5798339843751	1360.170532226563	-1106.641967773438	-262.1428833007813	1333.929443359375	-1165.9189453125	-220.3243103027344	1353.578857421875	-1077.406616210938	-320.5886535644532	1828.320678710938	-694.6223144531251	-339.3070678710938	1640.791870117188	-561.7512817382814	-300.3706359863282	1610.374755859375	-572.7809448242189	-332.6224060058594	1576.067504882813	-535.4464721679689	-317.1196594238282	1514.443603515625	-527.5297851562501	-391.0035095214845	1496.258666992188	-571.3384399414064	-255.8357849121094	1291.5380859375	-692.3605346679689	-215.6702880859376	1276.8701171875	-635.0142822265626	-190.1941070556641	1322.490356445313	-719.4765625000001	-172.8469696044922	1364.368286132813	-1016.3369140625	-146.2446899414063	1341.638305664063	-802.6787719726565	-323.3986511230469	1416.648681640625	-883.9114990234377	-330.7522888183594	1382.3974609375	-908.8524169921877	-308.5979614257813	1136.372436523438	-1094.650512695313	-287.2237243652344	1054.722534179688	-1105.508911132813	-240.1306304931641	1049.479736328125	-1103.7421875	-322.1257324218751	1005.657348632813	-1092.4541015625	-323.6876831054688	844.3992919921877	-1095.363891601563	-304.2977294921876	824.3707275390627	-975.2984008789065	-320.6524047851563	659.5435180664064	-1046.030395507813	-358.3706665039063	626.4230346679689	-1119.126708984375	-326.1844787597657	616.5134277343751	-1086.288208007813	-351.5458984375001	538.3392333984376	-1065.285034179688	-424.6656799316407	429.4236450195314	-1120.505004882813	-396.4281005859376	427.6008911132814	-1038.700927734375	-489.5765380859376	415.9053344726564	-1071.8896484375	-298.9107055664063	318.2283325195313	-1052.5234375	-298.7550659179688	316.7814331054688	-1098.888427734375	-344.8278808593751	307.6201782226563	-1139.532470703125	-290.8934020996094	1085.943481445313	-709.0604858398439	-259.3049926757813	1025.4404296875	-708.9834594726564	-228.0823669433594	1022.426147460938	-716.3580322265626	-298.7745666503907	951.546813964844	-723.4455566406251	-325.7603149414063	838.7996215820315	-731.7045288085939	-321.9373168945313	828.3955688476565	-855.9421386718752	-309.6697692871094	703.8385620117189	-748.4063720703126	-399.2633361816407	651.2256469726564	-710.6293945312501	-357.8973388671876	635.7071533203126	-720.5496215820314	-354.9556274414063	581.6739501953126	-742.6995849609376	-450.8803100585939	443.7829895019532	-730.3768920898439	-422.0742187500001	440.4418029785157	-810.2871093750002	-511.3169250488282	444.003387451172	-783.2363281250002	-347.5483398437501	309.3223266601563	-789.261657714844	-347.1211242675782	302.9454040527344	-752.6367187500001	-395.996307373047	304.4747924804688	-706.6865234375001	-320.9952697753907	1386.404418945313	-852.1705322265627	nan	nan	nan	nan	nan	nan	
894	4.465	-296.6168823242188	2105.038330078125	-879.5618286132815	-404.9378662109376	2016.85986328125	-954.486999511719	-434.6849365234376	1983.651977539063	-792.3309326171877	-415.7205200195314	1828.863891601563	-883.7527465820315	-361.5875244140626	1530.87255859375	-893.4114990234377	-262.5443115234376	1838.376220703125	-881.7717895507815	-304.9574890136719	1865.02587890625	-1058.398681640625	-342.8639526367188	1697.223388671875	-1223.462524414063	-310.2015380859376	1659.203857421875	-1215.023071289063	-347.4189453125001	1637.312622070313	-1258.583374023438	-343.7229309082032	1577.629638671875	-1275.379150390625	-416.9093017578126	1568.059814453125	-1230.38525390625	-285.4252319335938	1354.031372070313	-1106.618774414063	-262.9672851562501	1327.830932617188	-1166.157958984375	-221.4389801025391	1347.673217773438	-1077.388793945313	-320.8490295410157	1822.473266601563	-694.5392456054689	-339.5160217285157	1634.95166015625	-561.5991210937501	-300.7308349609376	1604.101196289063	-572.7673339843751	-333.0762939453126	1570.117919921875	-535.1550903320314	-317.5874023437501	1508.5322265625	-527.4896240234376	-391.721893310547	1490.358154296875	-571.0445556640626	-256.9230957031251	1286.048950195313	-692.5133666992189	-216.4796447753907	1270.953002929688	-635.2145996093751	-191.3699035644532	1316.3935546875	-719.7003784179689	-173.7896728515625	1358.437133789063	-1016.483825683594	-147.5065307617188	1335.640747070313	-803.2183837890627	-324.5973510742188	1410.495727539063	-883.941101074219	-332.0169982910157	1376.72119140625	-908.9204711914065	-309.0993347167969	1130.25146484375	-1095.0498046875	-287.6107177734376	1048.75537109375	-1105.946533203125	-240.3331756591797	1043.516357421875	-1104.0615234375	-322.1638183593751	999.5481567382815	-1092.952758789063	-323.4232482910157	838.2047119140627	-1096.028076171875	-304.1396179199219	818.1136474609377	-975.9085083007815	-320.4277648925782	653.4470825195314	-1046.807373046875	-357.8159484863282	620.1236572265626	-1119.723388671875	-325.3956909179688	610.1115722656251	-1087.206665039063	-350.9516296386719	532.0136108398439	-1066.0751953125	-423.4083557128907	422.8681640625001	-1121.459594726563	-395.5289916992189	421.5574951171876	-1039.845336914063	-488.2527160644532	409.0621337890626	-1073.10888671875	-297.0577697753907	312.2984008789063	-1053.275756835938	-296.8064575195313	311.0824584960938	-1100.006225585938	-342.9611816406251	301.8304138183594	-1140.843139648438	-291.7130126953126	1080.098754882813	-709.2492675781251	-259.7648315429688	1019.658020019531	-709.0733032226564	-228.7615203857422	1016.399780273438	-715.9226684570314	-298.8449096679688	944.980651855469	-723.1612548828126	-325.5125122070313	832.428405761719	-731.0998535156251	-321.2879943847657	821.8298339843752	-855.543395996094	-309.0812988281251	697.4545288085939	-747.8461303710939	-398.4884033203126	644.8468627929689	-709.9378051757814	-357.2331237792969	629.2980346679689	-719.7211914062501	-353.8368835449219	575.3016357421876	-741.9505004882814	-450.009002685547	437.343719482422	-729.5073242187501	-421.0660400390626	433.6580200195314	-809.3131103515627	-510.4496154785157	436.4119567871095	-782.215026855469	-344.8976440429688	303.7416076660157	-787.7708740234377	-344.7939147949219	297.2217102050782	-750.7698974609376	-393.3846740722657	298.8677368164063	-705.0264282226564	-323.5553588867188	1381.358764648438	-851.9302978515627	nan	nan	nan	nan	nan	nan	
